<svg xmlns="http://www.w3.org/2000/svg" viewBox="0 0 200 300">
  <rect width="200" height="300" fill="#070c16"/>
  
  <path d="M120,40 Q150,45 162,80 Q170,110 165,145 Q160,175 140,195 Q120,210 100,208 Q70,205 52,188 Q35,170 35,145 Q35,100 52,72 Q68,45 90,38 Z" fill="#070c16" stroke="#2a4a65" stroke-width="2.5"/>
  <ellipse cx="62" cy="130" rx="20" ry="30" fill="#070c16" stroke="#2a4a65" stroke-width="2"/>
  <path d="M105,100 L115,135 Q100,143 88,135 L95,100" fill="none" stroke="#2a4a65" stroke-width="1.8"/>
  <path d="M82,165 Q100,178 122,165" fill="none" stroke="#2a4a65" stroke-width="2"/>
  <path d="M95,205 L88,270 Q100,278 112,270 L105,205" fill="none" stroke="#2a4a65" stroke-width="2"/>
  
</svg>